M48
;Layer_Color=9474304
;FILE_FORMAT=2:5
INCH,LZ
;TYPE=PLATED
T1F00S00C0.03937
T2F00S00C0.04331
;TYPE=NON_PLATED
T3F00S00C0.12598
T4F00S00C0.13800
%
T01
X0077382Y0046819
X0088287
X0099193
X0110098
X0104646Y0058
X0115551
X009374
X0082835
X0071929
T02
X0019685Y0143543
Y0153543
Y0163543
X0049213Y0163386
Y0153386
Y0143386
X007874
Y0153386
Y0163386
X0108268Y0163543
Y0153543
Y0143543
X0137795
Y0153543
Y0163543
X0167323
Y0153543
Y0143543
T03
X0044547Y005241
X0142933
T04
X017248Y0015
X0015
Y0189
X01725
M30
